<?xml version="1.0" encoding="UTF-8" standalone="no"?>
<!-- Created with Inkscape (http://www.inkscape.org/) -->

<svg
   width="512"
   height="512"
   viewBox="0 0 512 512"
   version="1.1"
   id="svg5"
   inkscape:version="1.2.2 (b0a8486541, 2022-12-01)"
   sodipodi:docname="drafts-icon.svg"
   xml:space="preserve"
   inkscape:export-filename="pwa-icon-192.png"
   inkscape:export-xdpi="36"
   inkscape:export-ydpi="36"
   xmlns:inkscape="http://www.inkscape.org/namespaces/inkscape"
   xmlns:sodipodi="http://sodipodi.sourceforge.net/DTD/sodipodi-0.dtd"
   xmlns="http://www.w3.org/2000/svg"
   xmlns:svg="http://www.w3.org/2000/svg"><sodipodi:namedview
     id="namedview7"
     pagecolor="#ffffff"
     bordercolor="#666666"
     borderopacity="1.0"
     inkscape:showpageshadow="2"
     inkscape:pageopacity="0.0"
     inkscape:pagecheckerboard="true"
     inkscape:deskcolor="#d1d1d1"
     inkscape:document-units="px"
     showgrid="false"
     inkscape:zoom="0.52235414"
     inkscape:cx="135.92311"
     inkscape:cy="358.95188"
     inkscape:window-width="1128"
     inkscape:window-height="689"
     inkscape:window-x="0"
     inkscape:window-y="0"
     inkscape:window-maximized="1"
     inkscape:current-layer="layer1"><inkscape:grid
       type="xygrid"
       id="grid9"
       spacingx="32"
       spacingy="32"
       empspacing="4" /></sodipodi:namedview><defs
     id="defs2" /><g
     inkscape:label="Layer 1"
     inkscape:groupmode="layer"
     id="layer1"><path
       id="rect150"
       style="fill:#222222;fill-opacity:1;stroke-width:8"
       d="M 0,0 V 512 H 512 V 96 L 416,0 Z"
       sodipodi:nodetypes="cccccc" /><path
       style="fill:#444444;fill-opacity:1;stroke:none;stroke-width:1px;stroke-linecap:butt;stroke-linejoin:miter;stroke-opacity:1"
       d="m 416,0 v 96 h 96 z"
       id="path264"
       sodipodi:nodetypes="cccc" /><rect
       style="fill:#ffdd00;fill-opacity:1;stroke:none;stroke-width:8"
       id="rect1096"
       width="96"
       height="512"
       x="0"
       y="0" /><g
       id="g2618"
       transform="matrix(6.7671867,0,0,6.7671867,128.10629,96)"><g
         inkscape:label="facebook-blue-fauxbg"
         id="g3807"
         style="display:none"
         transform="translate(-5.9999995,-6)"><rect
           y="0"
           x="0"
           height="64"
           width="64"
           id="rect3809"
           style="fill:#3b5998;fill-opacity:1;stroke:none" /></g><g
         style="display:none"
         inkscape:label="red-fauxbg"
         id="g3008"
         transform="translate(-5.9999995,-6)"><rect
           y="0"
           x="0"
           height="64"
           width="64"
           id="rect3010"
           style="fill:#cc0000;fill-opacity:1;stroke:none" /></g><g
         id="g2997"
         inkscape:label="black-fauxbg"
         style="display:none"
         transform="translate(-5.9999995,-6)"><rect
           style="fill:#000000;fill-opacity:1;stroke:none"
           id="rect2999"
           width="64"
           height="64"
           x="0"
           y="0" /></g><g
         style="display:none"
         inkscape:label="black-bgcircle-56"
         id="g3009"><circle
           inkscape:export-ydpi="411.42999"
           inkscape:export-xdpi="411.42999"
           inkscape:export-filename="C:\Users\Stuart\Projects\art\spb-artwork\stuhat256b.png"
           transform="matrix(0.97816594,0,0,0.97816594,1.0567685,1.6681222)"
           id="path3011"
           style="fill:#000000;fill-opacity:1;stroke:none"
           cx="25.5"
           cy="24.875"
           r="28.625" /></g><g
         id="layer1-3"
         inkscape:label="circle"
         transform="translate(-5.9999995,-6)"
         style="display:inline"><circle
           style="fill:#ffffff;fill-opacity:1;stroke:none"
           id="path2993"
           transform="matrix(0.98620691,0,0,0.98620691,14.068965,8.5103443)"
           cx="18.181818"
           cy="23.818182"
           r="26.363636" /></g><g
         id="layer2"
         inkscape:label="design"
         style="display:inline"><path
           style="fill:#000000;stroke:none"
           d="m 25.4375,12.4375 c -4.596935,0.194809 -12.152266,1.530226 -13.34375,3.375 -1.815471,2.810892 -1.76163,9.490492 -1.75,10.1875 1.977117,1.086796 6.770338,3.521639 11.46875,4.8125 6.424817,1.765179 13.75,2.03125 13.75,2.03125 0,0 -5.702366,0.168541 -13.25,-1.65625 C 17.556792,30.037712 11.906069,27.163456 9.9375,26.25 8.868011,26.21158 3.6597997,26.084117 3.34375,27.4375 c -0.296694,1.270498 -0.041748,1.54784 2.34375,3.21875 1.806949,1.265668 6.306651,3.791443 9.71875,5.125 4.647628,1.816441 9.060817,2.971439 14.46875,3.84375 8.638343,1.393383 16.525777,0.894061 16.125,-5.71875 -0.125,-2.0625 -0.92211,-3.33612 -2.8125,-4.75 -1.270129,-0.949968 -2.640422,-1.381722 -2.9375,-1.46875 0.105416,2.106664 0.21875,4.375 0.21875,4.375 -0.158548,-1.20099 -0.349963,-2.921686 -0.4375,-4.4375 0,0 -0.02458,-0.325947 -0.03125,-0.40625 -0.09389,-1.130889 -0.805898,-9.418227 -1.5625,-10.6875 -1.922706,-3.225524 -7.258522,-3.272727 -10.53125,-4 -0.204545,-0.04546 -0.447088,-0.0831 -0.71875,-0.09375 -0.509366,-0.01997 -1.093295,-0.02783 -1.75,0 z m 4.8125,1.40625 c 0,0 5.90442,1.439356 5.8125,3.4375 -0.112993,2.456131 -14.788051,-0.922087 -21.1875,-1.625 6.789178,0.282803 17.527033,2.907661 19.5625,1.65625 C 36.840899,15.834883 30.25,13.84375 30.25,13.84375 Z m -8.84375,6.1875 8.125,1.03125 -0.40625,6.53125 c 1.748998,0.229708 3.78125,0.5 3.78125,0.5 0,0 -4.818129,-0.369694 -7.8125,-0.8125 -4.65854,-0.688903 -7,-2.03125 -7,-2.03125 0,0 0.421407,0.210061 2.875,1 0.01458,0.0047 0.04701,0.02645 0.0625,0.03125 z"
           id="path2998"
           inkscape:connector-curvature="0" /></g><g
         id="layer6"
         inkscape:label="2c-pips"
         transform="translate(-5.9999995,-6)"
         style="display:inline"><path
           sodipodi:nodetypes="csscscccsccccccc"
           inkscape:connector-curvature="0"
           id="path7100-2"
           d="m 27.813708,27.729426 0.01373,-0.0741 c 0.04234,-0.228999 0.100808,-0.301855 0.412067,-0.513587 0.151048,-0.102748 0.202602,-0.155796 0.215846,-0.222089 0.03421,-0.155819 -0.102982,-0.219546 -0.19556,-0.229829 -0.119891,-0.01326 -0.26294,0.04473 -0.215176,0.217957 l -0.138618,0.02583 c -0.01142,-0.158221 0.03127,-0.301289 0.164032,-0.353239 0.176853,-0.06725 0.389402,-0.01221 0.484818,0.131854 0.06413,0.0968 0.06822,0.221818 0.01917,0.314412 -0.139885,0.23525 -0.540322,0.304257 -0.601553,0.586457 l 0.430491,0.04379 0.01618,-0.158969 0.126793,0.0129 -0.02978,0.292656 z"
           style="display:inline;fill:#000000;fill-opacity:1" /><path
           style="display:inline;fill:#000000;fill-opacity:1"
           d="m 30.709523,30.239704 c 0.166502,-0.263333 0.296174,-0.537687 0.345015,-0.840202 0.02781,-0.110329 -0.04002,-0.119115 -0.05829,-0.0413 -0.271991,0.729003 -1.292954,0.420227 -1.185469,-0.280586 0.08719,-0.568353 0.667146,-0.633526 0.944141,-0.416608 0.109889,0.08072 0.107475,0.03882 0.05094,-0.03906 -0.389807,-0.535198 -0.05924,-1.139713 0.536143,-1.090816 0.638749,0.10349 0.736699,0.796553 0.302061,1.154062 -0.05388,0.04278 -0.17819,0.185264 -0.0035,0.09456 0.426789,-0.242306 0.948224,0.11796 0.892593,0.552835 -0.102583,0.801855 -1.088808,0.762095 -1.230091,0.06923 -0.01259,-0.07651 -0.06687,-0.119817 -0.06369,0.0083 0.0057,0.2319 0.03075,0.583198 0.172191,0.900997 z"
           id="path3259"
           inkscape:connector-curvature="0"
           sodipodi:nodetypes="cccscccccscscc" /><path
           style="display:inline;fill:#000000;fill-opacity:1"
           d="m 27.913,28.787409 c 0.05333,-0.08601 0.104835,-0.165868 0.138324,-0.262683 0.02504,-0.09197 -0.01021,-0.06044 -0.0345,-9.89e-4 -0.03535,0.08231 -0.11336,0.113507 -0.182202,0.107442 -0.12494,-0.01103 -0.177203,-0.115414 -0.162592,-0.220493 -0.0024,-0.112368 0.11814,-0.179449 0.202308,-0.164774 0.06329,0.01104 0.115365,0.05107 0.146283,0.08127 0.02087,0.01392 0.04396,0.02146 0.0141,-0.01197 -0.05519,-0.07417 -0.102706,-0.121297 -0.09123,-0.22284 0.01076,-0.09534 0.102508,-0.186574 0.210334,-0.172447 0.134756,0.01761 0.185723,0.126971 0.175647,0.222815 -0.0075,0.06985 -0.04895,0.130625 -0.106962,0.164975 -0.03782,0.0248 -0.03019,0.04704 0.0124,0.02426 0.04166,-0.02912 0.08874,-0.03893 0.136133,-0.03514 0.129395,0.01114 0.168541,0.127893 0.150589,0.230874 -0.0168,0.09648 -0.109739,0.18809 -0.217631,0.165667 -0.09623,-0.02107 -0.139079,-0.108008 -0.159858,-0.194895 -0.0071,-0.02672 -0.0217,-0.03522 -0.02516,0.0031 0.0034,0.189477 0.06133,0.313047 0.06185,0.31299 z"
           id="path3454"
           inkscape:connector-curvature="0"
           sodipodi:nodetypes="cccscsccssscccsccccc" /></g></g><rect
       style="fill:#303030;fill-opacity:1;stroke:none;stroke-width:8"
       id="rect3709"
       width="320"
       height="64"
       x="96"
       y="0" /><rect
       style="fill:#303030;fill-opacity:1;stroke:none;stroke-width:8"
       id="rect4075"
       width="416"
       height="32"
       x="96"
       y="480" /><g
       aria-label="DRAFTS."
       id="text1227"
       style="font-weight:bold;font-size:49.3827px;line-height:1.25;font-family:'Martian Mono';-inkscape-font-specification:'Martian Mono Bold';text-align:center;writing-mode:tb-rl;text-orientation:upright;text-anchor:middle;stroke-width:1.23457"><path
         d="M 33.97531,71.506132 V 31.999971 h 12.444441 q 8.296294,0 12.641971,5.037035 4.345678,5.037036 4.345678,14.716045 0,9.629627 -4.345678,14.716046 -4.345677,5.037035 -12.641971,5.037035 z m 8.345677,-7.753084 h 4.098764 q 4.345678,0 6.469134,-2.962962 2.172839,-2.962962 2.172839,-9.037035 0,-6.074072 -2.172839,-9.037034 -2.123456,-2.962962 -6.469134,-2.962962 h -4.098764 z"
         id="path2814" /><path
         d="M 34.51852,130.76541 V 91.259248 h 15.259255 q 3.999998,0 6.962961,1.530864 2.962962,1.481481 4.592591,4.296295 1.679012,2.765431 1.679012,6.469133 0,3.45679 -1.679012,6.07407 -1.679012,2.5679 -4.691357,4 -2.962962,1.4321 -6.864195,1.4321 h -6.913579 v 15.7037 z m 20.098759,0 -9.827157,-17.03703 h 8.888886 l 10.320985,17.03703 z M 42.864196,108.09875 h 6.716048 q 2.370369,0 3.703702,-1.18519 1.382716,-1.23456 1.382716,-3.30864 0,-2.07407 -1.382716,-3.25925 -1.333333,-1.234572 -3.703702,-1.234572 h -6.716048 z"
         id="path2816" /><path
         d="m 32.000002,190.02469 8.888886,-39.50616 H 54.81481 l 8.888886,39.50616 H 55.308637 L 48.04938,156.59261 h -0.839506 l -7.358023,33.43208 z m 6.567899,-11.55555 v -7.90123 h 18.567896 v 7.90123 z"
         id="path2818" /><path
         d="m 36.493828,249.28399 v -39.50616 h 25.827153 v 7.90123 H 44.839504 v 9.23456 h 15.012342 v 7.20988 H 44.839504 v 15.16049 z"
         id="path2820" /><path
         d="M 43.703702,308.54325 V 276.93832 H 32.493829 v -7.90123 h 30.71604 v 7.90123 H 51.999996 v 31.60493 z"
         id="path2822" /><path
         d="m 41.876542,356.04948 q 0.641975,2.07408 2.222222,3.1605 1.629629,1.08641 4.148147,1.08641 2.666666,0 4.197529,-1.23456 1.530864,-1.28395 1.530864,-3.45679 0,-1.58025 -1.086419,-2.61729 -1.037037,-1.03703 -2.91358,-1.33333 l -4.93827,-0.74074 q -5.234566,-0.8395 -8.04938,-3.90123 -2.814814,-3.11111 -2.814814,-8.09877 0,-3.85185 1.728394,-6.61728 1.728395,-2.81481 4.888888,-4.34568 3.209875,-1.53086 7.555553,-1.53086 4.345678,0 7.506171,1.53086 3.209875,1.48149 4.987653,4.34568 1.777777,2.81482 2.024691,6.8642 h -7.802467 q -0.641975,-2.5679 -2.37037,-3.90124 -1.679012,-1.33333 -4.345678,-1.33333 -2.814814,0 -4.444443,1.28395 -1.580246,1.23457 -1.580246,3.45679 0,1.58025 1.037036,2.66667 1.08642,1.03703 3.012345,1.33333 l 4.888888,0.74074 q 5.283949,0.83951 8.04938,3.95062 2.814814,3.06172 2.814814,7.99999 0,3.80247 -1.679012,6.61729 -1.679012,2.81481 -4.839505,4.34567 -3.11111,1.48149 -7.407405,1.48149 -4.296295,0 -7.456788,-1.38272 -3.11111,-1.38272 -4.93827,-4 -1.777777,-2.66667 -2.024691,-6.37037 z"
         id="path2824" /><path
         d="m 47.851849,441.11121 q -3.012345,0 -4.641974,-1.62963 -1.580246,-1.62963 -1.580246,-4.64197 0,-3.01235 1.580246,-4.5926 1.629629,-1.62962 4.641974,-1.62962 3.012345,0 4.592591,1.62962 1.62963,1.58025 1.62963,4.5926 0,3.01234 -1.62963,4.64197 -1.580246,1.62963 -4.592591,1.62963 z"
         id="path2826" /></g></g></svg>
